<svg width="71" height="81" viewBox="0 0 71 81" fill="none" xmlns="http://www.w3.org/2000/svg">
<path d="M62 78.6396L36 63.6396L16 52.1396L5.5 46.1396L3 44.6396L1.94521 43.6396L0.972603 42.6396L0.486305 41.6396L0 40.6396V40.1396V39.6396L0.486305 38.6396L0.972603 37.6396L1.94521 36.6396L36.5 16.6396L54.5 6.13965L62.5 1.63965L65 0.639648H67L69.5 2.13965L70.5 4.13965L71 5.63965L71 45.1396V64.8896V74.7646V76.2793V77.2793L70.5 78.2793L69.5 79.2793L68.5 79.7793L67.5 80.1396H66L64 79.6396L62 78.6396Z" fill="#D9D9D9"/>
</svg>
